<svg xmlns="http://www.w3.org/2000/svg" viewBox="0 0 800 900" role="img" aria-label="Gallery placeholder 4">
  <defs>
    <linearGradient id="d" x1="0" y1="0" x2="1" y2="1">
      <stop offset="0" stop-color="#fff9f7"/>
      <stop offset="1" stop-color="#e5c6bf"/>
    </linearGradient>
  </defs>
  <rect width="800" height="900" fill="url(#d)"/>
  <ellipse cx="150" cy="260" rx="140" ry="120" fill="#f5dde3"/>
  <ellipse cx="650" cy="640" rx="180" ry="145" fill="#e9bdc8" opacity="0.75"/>
  <path d="M190 710c80-138 164-226 286-248 84 38 112 124 108 242-118 94-258 96-394 6z" fill="#fff2f0"/>
  <path d="M290 378c36-64 84-94 154-92 50 20 70 54 70 108-56 58-124 78-198 52-26-22-36-40-26-68z" fill="#bf8a96" opacity="0.66"/>
</svg>
