<svg xmlns="http://www.w3.org/2000/svg" viewBox="0 0 800 900" role="img" aria-label="Gallery placeholder 6">
  <defs>
    <linearGradient id="f" x1="0" y1="0" x2="1" y2="1">
      <stop offset="0" stop-color="#fffdfc"/>
      <stop offset="1" stop-color="#dfc2bc"/>
    </linearGradient>
  </defs>
  <rect width="800" height="900" fill="url(#f)"/>
  <ellipse cx="680" cy="180" rx="150" ry="120" fill="#efd8de"/>
  <ellipse cx="180" cy="690" rx="210" ry="155" fill="#eec0ca" opacity="0.8"/>
  <path d="M178 684c86-148 166-230 292-260 84 48 120 132 116 250-126 88-260 98-408 10z" fill="#fff2ef"/>
  <path d="M300 322c40-54 84-78 150-82 52 18 80 54 88 112-52 52-120 74-198 56-34-16-48-34-40-86z" fill="#be8792" opacity="0.65"/>
</svg>
